<svg id="line"  viewBox="0 0 64 64" xmlns="http://www.w3.org/2000/svg">
<!-- <path d="m56.5 15h-5v48h5a3 3 0 0 0 3-3v-42a3 3 0 0 0 -3-3z" fill="#c4a2fc"/> -->
<!-- <circle cx="32.5" cy="32.5" r="30"  fill="#8EC170" /> -->
<path transform= "scale(0.8)" d="m24 15a3 3 0 0 0 -3 3v42a3 3 0 0 0 3 3h37v-48zm22 43h-18a1 1 0 0 1 0-2h18a1 1 0 0 1 0 2zm0-5h-18a1 1 0 0 1 0-2h18a1 1 0 0 1 0 2zm8-5h-26a1 1 0 0 1 0-2h26a1 1 0 0 1 0 2zm0-5h-26a1 1 0 0 1 0-2h26a1 1 0 0 1 0 2zm0-5h-26a1 1 0 0 1 0-2h26a1 1 0 0 1 0 2zm2-6a1 1 0 0 1 -1 1h-28a1 1 0 0 1 -1-1v-11a1 1 0 0 1 1-1h28a1 1 0 0 1 1 1z" fill="#FFFFFF"/>
<!-- <path d="m34.5 1a10.005 10.005 0 0 0 -9.964 9.3 3.364 3.364 0 0 1 -2.072 0 9.994 9.994 0 0 0 -19.964.7v25a9.011 9.011 0 0 0 9 9 1 1 0 0 0 0-2 7.008 7.008 0 0 1 -7-7v-19.025a9.979 9.979 0 0 0 17.9-4.617 5.129 5.129 0 0 0 2.206 0 9.979 9.979 0 0 0 17.9 4.617v19.025a7.008 7.008 0 0 1 -7 7 1 1 0 0 0 0 2 9.011 9.011 0 0 0 9-9v-25a10.011 10.011 0 0 0 -10.006-10zm-22 18a8 8 0 1 1 8-8 8.009 8.009 0 0 1 -8 8zm22 0a8 8 0 1 1 8-8 8.009 8.009 0 0 1 -8 8z" fill="#151a6a"/> -->
</svg>