<svg id="Master_Line" enable-background="new 0 0 512 512"  viewBox="0 0 512 512"  xmlns="http://www.w3.org/2000/svg">
<!-- <circle cx="250" cy="250" r="250"  fill="#8EC170" /> -->

<g fill="white"  transform= "scale(0.8)">
<path d="m559.55 291.07c-7.4-12.92-22.59-19.18-36.95-15.22l-143.39 39.56c-3.01-4.89-7.57-8.87-13.33-11.17l-101.63-40.9c-21.76-8.76-46.36-4.74-64.21 10.47l-53.88 45.92c-1.47 1.25-1.65 3.46-.39 4.93 1.25 1.47 3.46 1.65 4.93.39l53.88-45.92c15.86-13.52 37.73-17.08 57.06-9.3l101.64 40.9c10.45 4.17 15.62 15.77 11.76 26.41l-.2.54c-3.6 9.91-13.99 15.34-24.18 12.63l-67.38-17.94c-1.87-.49-3.79.61-4.28 2.48-.5 1.87.61 3.79 2.48 4.28l67.38 17.94c2.38.63 4.76.94 7.11.94 11.19 0 21.45-6.91 25.45-17.94l.2-.54c2.15-5.94 2.2-12.1.5-17.67l142.34-39.27c11.27-3.11 23.2 1.81 29.01 11.95 1.03 1.8 1.3 3.88.75 5.88-.54 2-1.83 3.66-3.63 4.69l-185.08 105.82c-16.42 9.39-35.57 12.04-53.93 7.48l-50.04-12.45c-15.01-3.73-30.62.44-41.76 11.17l-5.04 4.85c-.05-.06-.1-.12-.16-.17l-82.02-82.02c-7.37-7.37-19.02-7.97-27.11-1.4l-29.66 24.08c-1.5 1.22-1.73 3.42-.51 4.92s3.42 1.73 4.92.51l29.66-24.08c5.29-4.3 12.93-3.9 17.75.92l82.02 82.02c4.82 4.82 5.22 12.45.92 17.75l-24.08 29.66c-1.22 1.5-.99 3.71.51 4.92.65.53 1.43.78 2.2.78 1.02 0 2.03-.44 2.72-1.29l24.1-29.65c4.97-6.12 5.82-14.28 2.76-21.08l5.89-5.67c9.39-9.05 22.55-12.57 35.21-9.42l50.04 12.45c20.11 5 41.1 2.09 59.09-8.19l185.08-105.82c3.42-1.96 5.88-5.13 6.91-8.93 1.04-3.8.53-7.78-1.43-11.2z"/>
<path d="m488.3 251.14c-4.08 0-8 .7-11.65 1.98-4.7-12.45-16.63-21.35-30.67-21.58-5.22-11.61-16.89-19.7-30.45-19.7-5.11 0-9.95 1.15-14.28 3.2-7.13-13.47-21.28-22.65-37.59-22.65-15.68 0-29.36 8.49-36.73 21.12-3.4-.97-6.99-1.49-10.7-1.49-18.97 0-34.78 13.49-38.37 31.41-3.27-.8-6.68-1.24-10.2-1.24-15.6 0-29.23 8.41-36.62 20.94 10.56-1.76 21.6-.67 31.9 3.48l101.63 40.9c6.04 2.41 10.58 6.98 13.07 12.5l1.34-.88 143.39-39.56.27-1.19c-3.65-15.62-17.63-27.24-34.34-27.24zm-181.58 6.41c0 1.93-1.57 3.5-3.5 3.5s-3.5-1.57-3.5-3.5v-10.04c0-1.93 1.57-3.5 3.5-3.5s3.5 1.57 3.5 3.5zm51.29-14.83c0 1.93-1.57 3.5-3.5 3.5s-3.5-1.57-3.5-3.5v-10.04c0-1.93 1.57-3.5 3.5-3.5s3.5 1.57 3.5 3.5zm45.1 20.25c0 1.93-1.57 3.5-3.5 3.5s-3.5-1.57-3.5-3.5v-10.04c0-1.93 1.57-3.5 3.5-3.5s3.5 1.57 3.5 3.5zm50-2.23c0 1.93-1.57 3.5-3.5 3.5s-3.5-1.57-3.5-3.5v-10.04c0-1.93 1.57-3.5 3.5-3.5s3.5 1.57 3.5 3.5z"/>
<!-- <path d="m197.64 83.49c17.34 17.28 40.66 26.51 64.42 26.51 10.89 0 21.88-1.94 32.42-5.94.44-.17.88-.34 1.33-.51l-5.87 28.31c-3.55 17.13-9.14 33.84-16.61 49.65-.83 1.75-.08 3.83 1.67 4.66.48.23.99.34 1.49.34 1.31 0 2.57-.74 3.17-2.01 7.71-16.32 13.47-33.55 17.14-51.22l4.65-22.43 4.65 22.43c3.66 17.67 9.43 34.9 17.14 51.22.6 1.26 1.85 2.01 3.17 2.01.5 0 1.01-.11 1.49-.34 1.75-.83 2.5-2.91 1.67-4.66-7.47-15.82-13.06-32.52-16.61-49.65l-7.35-35.46c.45-1.41.97-2.89 1.58-4.43 7.27-18.54 20.63-33.48 38.06-42.78-8.85 7.23-15.59 16.93-19.25 27.98-.3.91.73 1.68 1.52 1.14 15.02-10.3 31.48-18.12 49.11-23.29 2.09-.61 4.28.81 4.48 3.1.14 1.67-1 3.18-2.61 3.65-19.6 5.76-37.69 14.92-53.87 27.26-.89.68-1.47 1.72-1.55 2.84-.11 1.47-.17 2.94-.17 4.43 0 1.84.52 3.56 1.41 5.03-2.99-.61-5.98-1.38-8.93-2.32-1.84-.59-3.81.43-4.4 2.27s.43 3.81 2.27 4.4c9.22 2.94 18.64 4.37 27.97 4.37 23.74 0 46.84-9.27 64.21-26.57 9.6-9.56 19.16-20.97 28.43-33.89.6-.84.8-1.9.55-2.9s-.93-1.84-1.86-2.29c-3.23-1.58-6.47-3.08-9.62-4.46-23.08-10.1-49.6-10.4-72.78-.81-22.22 9.19-39.39 26.27-48.62 48.2-9.22-21.93-26.39-39-48.62-48.2-23.18-9.59-49.71-9.29-72.78.81-3.15 1.38-6.39 2.88-9.62 4.46-.93.45-1.61 1.29-1.86 2.29s-.05 2.06.55 2.9c9.26 12.94 18.83 24.34 28.43 33.9zm98.25 8.49c.48 1.21.91 2.39 1.29 3.53-1.78.71-3.5 1.38-5.18 2.01-4.35 1.65-8.79 2.91-13.26 3.81.9-1.47 1.42-3.18 1.42-5.01 0-1.6-.07-3.19-.2-4.76-.09-1.13-.63-2.18-1.52-2.88-18.24-14.31-38.76-24.89-61.06-31.45-1.61-.47-2.75-1.98-2.61-3.65.2-2.29 2.4-3.71 4.48-3.1 20.21 5.93 39.01 15.03 56.06 27.12.8.56 1.85-.22 1.53-1.14-3.71-10.75-10.35-20.18-19.01-27.26 17.44 9.3 30.8 24.24 38.06 42.78z"/> -->
</g>
</svg>